<svg width="276" height="90" viewBox="0 0 276 90" fill="none" xmlns="http://www.w3.org/2000/svg">
<path d="M105.522 65.2354H81.6352V22.6706H104.252C107.513 22.6706 110.202 23.0518 112.32 23.8142C114.48 24.5342 116.089 25.6777 117.148 27.2448C118.207 28.7695 118.736 30.7389 118.736 33.153C118.736 35.8212 118.016 37.9389 116.576 39.5059C115.136 41.073 112.955 41.9836 110.033 42.2377V43.0636C113.633 43.1906 116.301 44.2283 118.038 46.1765C119.816 48.1248 120.706 50.5389 120.706 53.4189C120.706 55.8754 120.155 57.993 119.054 59.7718C117.995 61.5506 116.343 62.9059 114.099 63.8377C111.854 64.7695 108.995 65.2354 105.522 65.2354ZM93.5787 48.1459V54.4989H105.078C106.221 54.4989 107.089 54.3295 107.682 53.9906C108.275 53.6518 108.572 52.7836 108.572 51.3859C108.572 49.9459 108.296 49.0565 107.746 48.7177C107.195 48.3365 106.306 48.1459 105.078 48.1459H93.5787ZM93.5787 33.4071V38.8706H103.616C104.845 38.8706 105.67 38.6801 106.094 38.2989C106.56 37.9177 106.793 37.1977 106.793 36.1389C106.793 34.9953 106.518 34.2542 105.967 33.9153C105.459 33.5765 104.59 33.4071 103.362 33.4071H93.5787ZM138.706 65.8706C135.191 65.8706 132.184 65.2142 129.685 63.9012C127.229 62.5459 125.344 60.6401 124.031 58.1836C122.761 55.6848 122.125 52.6989 122.125 49.2259C122.125 45.6259 122.782 42.5342 124.095 39.9506C125.408 37.3671 127.335 35.3977 129.876 34.0424C132.417 32.6448 135.488 31.9459 139.088 31.9459C142.603 31.9459 145.525 32.5812 147.855 33.8518C150.226 35.1224 151.984 36.8801 153.128 39.1248C154.313 41.3271 154.906 43.8895 154.906 46.8118C154.906 47.7012 154.843 48.5906 154.716 49.4801C154.589 50.3695 154.483 51.0895 154.398 51.6401H127.208V45.1601H144.043L143.535 45.4777C143.577 44.7153 143.45 44.0377 143.153 43.4448C142.899 42.8095 142.391 42.3012 141.629 41.9201C140.909 41.5389 139.85 41.3483 138.452 41.3483C136.504 41.3483 135.149 41.7083 134.386 42.4283C133.624 43.1059 133.243 44.2071 133.243 45.7318V50.2424C133.243 51.8095 133.37 53.0165 133.624 53.8636C133.878 54.6683 134.408 55.2189 135.212 55.5154C136.017 55.8118 137.245 55.9601 138.897 55.9601C140.337 55.9601 141.332 55.8118 141.883 55.5154C142.433 55.1765 142.709 54.6471 142.709 53.9271V53.8001H154.525V54.5624C154.525 56.7648 153.869 58.713 152.556 60.4071C151.285 62.1012 149.464 63.4354 147.092 64.4095C144.763 65.3836 141.968 65.8706 138.706 65.8706ZM169.445 65.2354H157.565V32.5812H168.683V41.8565L169.445 42.1742V65.2354ZM169.445 44.5883H167.031V37.5365H169.255C170.186 35.9271 171.415 34.593 172.939 33.5342C174.506 32.4753 176.37 31.9459 178.53 31.9459C180.648 31.9459 182.32 32.3695 183.549 33.2165C184.777 34.0636 185.666 35.2706 186.217 36.8377C186.768 38.4048 187.043 40.2683 187.043 42.4283V48.3365H175.099V45.0965C175.099 43.8683 174.93 43.0424 174.591 42.6189C174.252 42.1953 173.532 41.9836 172.431 41.9836C171.457 41.9836 170.716 42.1318 170.208 42.4283C169.699 42.6824 169.445 43.4024 169.445 44.5883ZM201.024 65.2354H189.144V22.6706H201.024V65.2354ZM216.72 29.6589H204.84V22.6706H216.72V29.6589ZM216.784 65.2354H204.84V32.5812H216.784V65.2354ZM254.587 65.2354H242.643V46.8118C242.643 45.0753 242.325 43.8683 241.69 43.1906C241.097 42.513 239.742 42.1742 237.624 42.1742C236.311 42.1742 235.274 42.3012 234.511 42.5553C233.791 42.8095 233.262 43.2542 232.923 43.8895C232.627 44.5248 232.478 45.4353 232.478 46.6212H230.572V37.5365H232.288C232.881 36.3083 233.707 35.2918 234.765 34.4871C235.824 33.6401 237.052 33.0048 238.45 32.5812C239.848 32.1577 241.351 31.9459 242.961 31.9459C245.798 31.9459 248.064 32.5177 249.758 33.6612C251.452 34.7624 252.681 36.2659 253.443 38.1718C254.205 40.0353 254.587 42.0895 254.587 44.3342V65.2354ZM232.478 65.2354H220.598V32.5812H231.716V41.5389L232.478 41.8565V65.2354ZM272.363 65.2354H258.133V52.0848H272.363V65.2354Z" fill="black"/>
<rect y="13.2354" width="63.5294" height="63.5294" rx="5.29412" fill="#FECB03"/>
<rect width="42.3529" height="7.94118" rx="2.64706" transform="matrix(1 0 0 -1 10.5884 7.94116)" fill="#808080"/>
<rect width="42.3529" height="7.94118" rx="2.64706" transform="matrix(1 0 0 -1 10.5884 90)" fill="#808080"/>
<path fill-rule="evenodd" clip-rule="evenodd" d="M53.1014 37.2199C54.1352 38.2537 54.1352 39.9297 53.1014 40.9634L32.3126 61.7522C31.2789 62.786 29.6028 62.786 28.5691 61.7522L13.0744 46.2575C12.0406 45.2238 12.0406 43.5478 13.0744 42.514L18.6896 36.8988C19.7234 35.865 21.3994 35.865 22.4332 36.8988L30.4408 44.9065L43.7426 31.6047C44.7764 30.5709 46.4524 30.5709 47.4862 31.6047L53.1014 37.2199Z" fill="black"/>
</svg>
